# xmcd
#
# Track frame offsets:
#	150
#	15581
#	31742
#	50087
#	64390
#	80299
#	97377
#	112152
#	128379
#	144782
#
# Disc length: 2201 seconds
#
# Revision: 0
# Processed by: cddbd v1.5.2PL0 Copyright (c) Steve Scherf et al.
# Submitted via: dBpowerAMP V4.0
#
DISCID=8208970a
DTITLE=Dru Blake - Hazardous Country
DYEAR=1900
DGENRE=Country
TTITLE0=Loiusiana Lady
TTITLE1=Hardin County Line
TTITLE2=How Long
TTITLE3=Daddy Gonna Love Her
TTITLE4=Tail Gatin'
TTITLE5=Run and Hide
TTITLE6=You've Gotta Stop This
TTITLE7=Can't Lve Without You
TTITLE8=She's Gonna Get Her Way
TTITLE9=Gone
EXTD=Dru Blake - Hazardous Country
EXTT0=
EXTT1=
EXTT2=
EXTT3=
EXTT4=
EXTT5=
EXTT6=
EXTT7=
EXTT8=
EXTT9=
PLAYORDER=
